<?xml version="1.0" encoding="UTF-8" standalone="no"?>
<svg width="70px" height="51px" viewBox="0 0 70 51" version="1.1" xmlns="http://www.w3.org/2000/svg" xmlns:xlink="http://www.w3.org/1999/xlink">
    <defs></defs>
    <g id="crown-logo-black" fill="#000000">
        <path d="M13.4102239,16.2499254 C15.3096269,17.0329851 17.4660448,16.1370896 18.2397015,14.2591045 C19.0170149,12.3852985 18.1273881,10.2079851 16.2279851,9.42962687 C14.3656716,8.66380597 12.2003731,9.57746269 11.4256716,11.4580597 C10.6509701,13.3292537 11.5468657,15.4856716 13.4102239,16.2499254"></path>
        <path d="M5.04835821,21.1504478 C6.94880597,21.9345522 9.10313433,21.0386567 9.87679104,19.1601493 C10.6551493,17.2868657 9.765,15.1095522 7.86455224,14.3296269 C6.00276119,13.5653731 3.83850746,14.4790299 3.06276119,16.3596269 C2.2880597,18.2297761 3.18447761,20.386194 5.04835821,21.1504478"></path>
        <path d="M2.59992537,30.4479104 C4.50037313,31.2314925 6.65626866,30.335597 7.43044776,28.4581343 C8.20828358,26.5853731 7.31865672,24.4075373 5.41873134,23.6276119 C3.55641791,22.8628358 1.3911194,23.7759701 0.615373134,25.6565672 C-0.159328358,27.5277612 0.736567164,29.6857463 2.59992537,30.4479104"></path>
        <path d="M22.7426866,19.196194 C24.6426119,19.9792537 26.7990299,19.0833582 27.5721642,17.2053731 C28.35,15.3331343 27.4598507,13.1552985 25.5604478,12.3753731 C23.6976119,11.6100746 21.5328358,12.5237313 20.7581343,14.4048507 C19.9834328,16.2755224 20.8793284,18.4324627 22.7426866,19.196194"></path>
        <path d="M56.5579104,16.2499254 C54.6574627,17.0329851 52.5015672,16.1370896 51.7273881,14.2591045 C50.9500746,12.3852985 51.8402239,10.2079851 53.7385821,9.42962687 C55.6024627,8.66380597 57.7672388,9.57746269 58.5419403,11.4580597 C59.3166418,13.3292537 58.4202239,15.4856716 56.5579104,16.2499254"></path>
        <path d="M64.9192537,21.1504478 C63.0193284,21.9345522 60.8639552,21.0386567 60.0902985,19.1601493 C59.3119403,17.2868657 60.2026119,15.1095522 62.1009701,14.3296269 C63.9643284,13.5653731 66.1291045,14.4790299 66.9048507,16.3596269 C67.6790299,18.2297761 66.7826119,20.386194 64.9192537,21.1504478"></path>
        <path d="M67.3671642,30.4479104 C65.4672388,31.2314925 63.3108209,30.335597 62.5376866,28.4581343 C61.7593284,26.5853731 62.65,24.4075373 64.549403,23.6276119 C66.411194,22.8628358 68.5775373,23.7759701 69.351194,25.6565672 C70.1269403,27.5277612 69.2305224,29.6857463 67.3671642,30.4479104"></path>
        <path d="M47.2249254,19.196194 C45.3239552,19.9792537 43.1696269,19.0833582 42.394403,17.2053731 C41.6170896,15.3331343 42.5077612,13.1552985 44.4066418,12.3753731 C46.2694776,11.6100746 48.4352985,12.5237313 49.2089552,14.4048507 C49.9836567,16.2755224 49.0877612,18.4324627 47.2249254,19.196194"></path>
        <path d="M36.931791,9.66365672 L36.9427612,9.65373134 L41.6113433,12.1047761 L41.6113433,5.2238806 L36.9479851,6.70067164 L36.9349254,6.68708955 C36.8043284,6.51522388 36.6533582,6.36216418 36.4814925,6.23 L36.4689552,6.21641791 L38.3453731,0.311343284 L34.9764925,0.311865672 L31.6065672,0.311343284 L33.4829851,6.21641791 L33.469403,6.23 C33.2996269,6.36216418 33.1476119,6.51522388 33.0175373,6.68708955 L33.0034328,6.70067164 L28.3411194,5.2238806 L28.3411194,12.1047761 L33.0102239,9.65373134 L33.0206716,9.66365672 C33.1591045,9.84544776 33.3215672,10.0058209 33.5033582,10.1421642 L30.8219403,18.2302985 C30.818806,18.2402239 30.8156716,18.2501493 30.8130597,18.260597 L30.8099254,18.2689552 L30.8109701,18.2694776 C30.6861194,18.6732836 30.618209,19.1021642 30.618209,19.546194 C30.618209,21.7344776 32.2334328,23.5408955 34.3355224,23.851194 C34.3663433,23.8558955 34.3976866,23.8611194 34.4295522,23.8652985 C34.6087313,23.888806 34.7894776,23.9039552 34.9764925,23.9039552 C35.1614179,23.9039552 35.343209,23.888806 35.5229104,23.8652985 C35.5537313,23.8611194 35.5850746,23.8558955 35.6158955,23.851194 C37.7179851,23.5408955 39.3337313,21.7344776 39.3337313,19.546194 C39.3337313,19.1021642 39.2658209,18.6732836 39.1425373,18.2694776 L39.1425373,18.2689552 L39.139403,18.260597 C39.1378358,18.2501493 39.1331343,18.2402239 39.1294776,18.2302985 L36.4491045,10.1421642 C36.6308955,10.0058209 36.7928358,9.84544776 36.931791,9.66365672"></path>
        <path d="M34.9764925,49.245 C43.8393284,49.245 52.229403,49.8447015 59.7047761,50.9150746 C61.826194,41.9926866 64.4088806,36.8821642 67.076194,33.2426866 L62.0544776,31.4540299 C62.554403,34.0048507 62.633806,35.1901493 62.0748507,36.8299254 C61.2463433,36.0207463 60.4617164,34.5314179 59.8489552,32.2558955 L57.4172388,40.3581343 C58.8966418,39.3389552 60.0385821,38.6807463 61.3445522,38.6499254 C59.0282836,43.638209 56.1352985,44.9227612 54.2604478,44.5758955 C51.9723881,44.1564179 50.9197761,42.1149254 51.2744776,40.3837313 C51.8020896,37.9311194 54.3189552,37.291194 55.4943284,40.145 C57.7437313,35.5589552 53.9287313,34.1291791 51.4729851,35.4863433 C55.2435821,31.7246269 55.6750746,28.3813433 52.6316418,24.3359701 C48.3903731,27.5773881 48.3412687,30.7879851 50.2490299,35.3050746 C47.7723881,32.470597 43.9197761,33.9928358 45.3119403,38.5720896 C47.0974627,35.8070896 49.461791,37.545597 49.0908955,40.1726866 C48.7769403,42.4612687 45.7554478,44.3089552 41.9926866,43.9824627 C36.6011194,43.4924627 36.2808955,39.7714925 36.145597,36.6925373 C37.4703731,36.4464925 39.858209,37.676194 41.8929104,40.5331343 L42.6425373,31.9393284 C40.4286567,34.2472388 38.4169403,34.685 36.1821642,34.7565672 C36.9255224,32.435597 40.3450746,28.6320896 40.3450746,28.6320896 L35.3776866,28.6320896 L35.3745522,28.6320896 L35.3719403,28.6320896 L29.6188806,28.6320896 C29.6188806,28.6320896 33.0368657,32.435597 33.7812687,34.7565672 C31.5470149,34.685 29.5347761,34.2472388 27.3203731,31.9393284 L28.0694776,40.5331343 C30.1062687,37.676194 32.4920149,36.4470149 33.8178358,36.6925373 C33.6841045,39.7720149 33.3633582,43.4929851 27.9702239,43.9824627 C24.2074627,44.3089552 21.1864925,42.4612687 20.8730597,40.1726866 C20.5016418,37.545597 22.8659701,35.8070896 24.6525373,38.5720896 C26.0447015,33.9928358 22.1894776,32.470597 19.714403,35.3050746 C21.6226866,30.7885075 21.5725373,27.5779104 17.331791,24.3359701 C14.2883582,28.3813433 14.7193284,31.7246269 18.4899254,35.4863433 C16.0341791,34.1291791 12.2202239,35.5589552 14.4691045,40.145 C15.6444776,37.291194 18.1634328,37.9311194 18.6889552,40.3837313 C19.0431343,42.1149254 17.99,44.1569403 15.7024627,44.5758955 C13.8281343,44.9227612 10.9356716,43.638209 8.61940299,38.6499254 C9.92485075,38.6807463 11.0657463,39.3384328 12.5472388,40.3581343 L10.1139552,32.2558955 C9.50067164,34.5308955 8.71708955,36.0207463 7.8880597,36.8299254 C7.32910448,35.1901493 7.40902985,34.0048507 7.90738806,31.4540299 L2.88776119,33.2426866 C5.55402985,36.8821642 8.13619403,41.9926866 10.2581343,50.9129851 C17.7298507,49.8447015 26.1152239,49.245 34.9764925,49.245"></path>
    </g>
</svg>
