<?xml version="1.0" encoding="UTF-8" standalone="no"?>
<svg width="41px" height="17px" viewBox="0 0 41 17" version="1.1" xmlns="http://www.w3.org/2000/svg" xmlns:xlink="http://www.w3.org/1999/xlink" xmlns:sketch="http://www.bohemiancoding.com/sketch/ns">
    <!-- Generator: Sketch 3.3.3 (12072) - http://www.bohemiancoding.com/sketch -->
    <title>open-government-licence</title>
    <desc>Created with Sketch.</desc>
    <defs></defs>
    <g id="Page-1" stroke="none" stroke-width="1" fill="none" fill-rule="evenodd" sketch:type="MSPage">
        <g id="open-government-licence" sketch:type="MSLayerGroup" fill="#0B0C0C">
            <path d="M35.7055785,12.0966942 L35.7055785,0.00847107438 L31.4107438,2.7446281 L31.4107438,16.3915289 L40.9322314,16.3915289 L40.9322314,12.0966942 L35.7055785,12.0966942 Z" id="Shape" sketch:type="MSShapeGroup"></path>
            <path d="M25.3454545,11.2834711 C24.6423554,11.9018595 23.7190083,12.2745868 22.7109504,12.2745868 C20.5084711,12.2745868 18.7210744,10.4871901 18.7210744,8.28471074 C18.7210744,6.0822314 20.5084711,4.29483471 22.7109504,4.29483471 C24.1256198,4.29483471 25.3708678,5.03181818 26.0739669,6.14152893 L29.6911157,3.83739669 C28.2256198,1.53326446 25.6419421,0 22.7109504,0 C19.6190083,0 16.9252066,1.70268595 15.5020661,4.21012397 C14.0789256,1.70268595 11.3766529,0 8.28471074,0 C3.71880165,0 0,3.71880165 0,8.28471074 C0,12.8506198 3.71880165,16.5694215 8.28471074,16.5694215 C11.3766529,16.5694215 14.0704545,14.8667355 15.493595,12.3592975 C16.9167355,14.8752066 19.6190083,16.5694215 22.7024793,16.5694215 C24.7948347,16.5694215 26.7092975,15.7900826 28.1663223,14.5109504 L29.8097107,16.3915289 L30.063843,16.3915289 L30.063843,8.95392562 L23.2869835,8.95392562 L25.3454545,11.2834711 L25.3454545,11.2834711 Z M8.28471074,12.2830579 C6.0822314,12.2830579 4.29483471,10.4956612 4.29483471,8.29318182 C4.29483471,6.09070248 6.0822314,4.30330579 8.28471074,4.30330579 C10.4871901,4.30330579 12.2830579,6.0822314 12.2830579,8.28471074 C12.2830579,10.4871901 10.4871901,12.2830579 8.28471074,12.2830579 L8.28471074,12.2830579 Z" id="Shape" sketch:type="MSShapeGroup"></path>
        </g>
    </g>
</svg>